<svg fill="none" height="289" viewBox="0 0 735 289" width="735" xmlns="http://www.w3.org/2000/svg" xmlns:xlink="http://www.w3.org/1999/xlink"><clipPath id="a"><path d="m0 0h734.07v288.01h-734.07z"/></clipPath><g clip-path="url(#a)"><g fill="#e72264"><path d="m304.17 288.01v-198.02h-59.2c-.2 0-.41 0-.63.01-10.64.37-19.19 9.12-19.29 19.76v.17 158.47c0 .33.02.7.05 1.11.9 10.2 9.44 18.02 19.67 18.46.43.02.84.03 1.22.03h58.18z"/><path d="m548.21 287.91c11.03-.83 19.76-9.91 19.84-20.98 0-.07 0-.14 0-.21v-156.56c0-.06 0-.13 0-.19-.05-10.94-8.95-19.86-19.89-19.97-.08 0-.16 0-.24 0h-58.99v198.02h56.81c.77 0 1.6-.04 2.47-.1z"/><path d="m293.07 90h62c6.08 0 14.68 4.92 19.22 11l131.47 176c4.54 6.08 3.29 11-2.78 11h-62c-6.08 0-14.68-4.92-19.22-11l-131.48-176c-4.54-6.07-3.29-11 2.78-11z"/><path d="m498.07 90h-62c-6.08 0-14.68 4.92-19.22 11l-131.47 176c-4.54 6.08-3.29 11 2.78 11h62c6.08 0 14.68-4.92 19.22-11l131.47-176c4.54-6.07 3.29-11-2.78-11z"/><path d="m529.07 0c20.98 0 38 17.01 38 38s-17.01 38-38 38-38-17.01-38-38 17.01-38 38-38z"/><path d="m265.07 0c20.98 0 38 17.01 38 38s-17.01 38-38 38-38-17.01-38-38 17.01-38 38-38z"/><path d="m695.07 0h-60c-21.54 0-39 17.46-39 39v60c0 21.54 17.46 39 39 39h60c21.54 0 39-17.46 39-39v-60c0-21.54-17.46-39-39-39zm-39.63 39.34v40.5c0 5.46-1.09 10.2-3.27 14.21s-5.29 7.12-9.33 9.33-8.83 3.32-14.36 3.32c-4.7 0-8.76-.85-12.19-2.54s-6.31-4.06-8.66-7.1c0 0-6.55-7.07-.55-12.06 6.13-5.1 11.44 1.58 11.44 1.58 1.24 1.73 2.71 3.03 4.41 3.89 1.69.87 3.61 1.3 5.76 1.3 2 0 3.77-.41 5.29-1.24s2.73-2.07 3.63-3.73 1.35-3.7 1.35-6.12v-41.33s-.16-8.34 8.12-8.34 8.37 8.34 8.37 8.34zm58.91 59.04c-4.53 4.48-11.2 7.18-20 8.1-6.05.64-11.33.22-15.83-1.25s-8.71-4.02-12.64-7.64c0 0-6.08-5.24-1.18-11.82 3.68-4.95 10.6.19 10.6.19 2.62 2.44 5.43 4.24 8.44 5.42s6.4 1.57 10.19 1.17c3.37-.35 5.93-1.27 7.69-2.74s2.52-3.31 2.29-5.51c-.2-1.92-.97-3.44-2.3-4.55s-3.08-2-5.24-2.68-4.48-1.28-6.97-1.82-5.01-1.23-7.57-2.07-4.93-1.95-7.13-3.32-4.04-3.22-5.54-5.57-2.44-5.34-2.82-8.98c-.48-4.54.2-8.54 2.02-12 1.83-3.46 4.61-6.24 8.35-8.34s8.09-3.41 13.04-3.93c5.16-.54 9.93-.14 14.31 1.2 4.38 1.35 8.11 3.39 11.18 6.12 0 0 4.3 3.61.81 9.82-2.71 4.83-10.32 1.93-10.32 1.93-2.44-2.04-4.84-3.49-7.18-4.35-2.35-.86-4.9-1.15-7.65-.86-2.82.3-5 1.07-6.54 2.3-1.54 1.24-2.2 2.86-1.99 4.85.19 1.79.96 3.18 2.32 4.19 1.36 1 3.09 1.81 5.21 2.42 2.11.61 4.44 1.2 6.96 1.77 2.53.57 5.07 1.26 7.62 2.07s4.92 1.97 7.09 3.48 4.03 3.47 5.57 5.88 2.51 5.54 2.92 9.39c.73 6.95-1.17 12.66-5.71 17.13z"/><path d="m107.17.340088c-59.19 0-107.17 47.980012-107.17 107.169912 0 1.16.02 2.31.06 3.46v102.99.02 10.47s0 0 .01-.01v25.89c0 .2-.01.39-.01.59s.01.4.02.6v.48h.01c.57 19.89 16.86 35.84 36.89 35.84s36.49-15.95 37.06-35.84v-38.02h30.62c.83.02 1.67.03 2.5.03 59.19 0 107.17-47.31 107.17-106.5 0-59.1899-47.97-107.169912-107.16-107.169912zm0 139.669912c-6.55 0-23.15 0-30.04 0h-3.06v-32.49c0-18.2099 14.89-32.9799 33.1-32.9799s32.98 14.77 32.98 32.9799c0 18.21-14.77 32.5-32.98 32.5z"/></g><path d="m36.05 214h37.94v38.01h-.17c-.57 19.89-16.86 35.84-36.89 35.84s-36.33-15.95-36.9-35.84h-.01v-.48c0-.2-.02-.4-.02-.6s.01-.39.01-.59v-2.68c1.14-17.79 17.93-33.66 36.03-33.66z" fill="#1d1d1b" opacity=".15"/><g fill="#000"><g opacity=".05"><path d="m.0600586 168.28v45.7c0-40.26 33.8300414-73.4 73.9900414-73.95v-14.58c-29.85 3.14-56.28 19.21-73.9900414 42.83z" opacity=".5"/><path d="m.120117 248.37c8.720003-6.4 19.299983-10.17 30.719983-10.17h43.22v-24.22h-37.03c-19.56 0-35.54998 15.17-36.909983 34.39z"/></g><g opacity=".05"><path d="m74.0501 140.03v-13.24c-30.1 2.95-56.66 19.37-73.9900414 43.48v43.71c0-40.26 33.8300414-73.4 73.9900414-73.95z" opacity=".5"/><path d="m37.03 213.98c-19.03 0-34.68999 14.37-36.76999 32.85 8.71-6.8 19.46999-10.82 31.13999-10.82h42.65v-22.02h-37.03z"/></g><g opacity=".05"><path d="m74.0501 140.03v-11.91c-30.37 2.75-57.1 19.57-73.9900414 44.22v41.63c0-40.26 33.8300414-73.4 73.9900414-73.95z" opacity=".5"/><path d="m37.03 213.98c-18.5 0-33.81004 13.57-36.570039 31.3 8.659999-7.19 19.600039-11.48 31.500039-11.48h42.09v-19.82h-37.03z"/></g><g opacity=".05"><path d="m74.0501 140.03v-10.57c-30.68 2.54-57.59 19.82-73.9900414 45.07v39.45c0-40.26 33.8300414-73.4 73.9900414-73.95z" opacity=".5"/><path d="m37.03 213.98c-17.97 0-32.94002 12.81-36.30002 29.79 8.59-7.59 19.68002-12.17 31.80002-12.17h41.53v-17.62z"/></g><g opacity=".05"><path d="m74.0501 140.03v-9.22c-31.04 2.3-58.16 20.12-73.9900414 46.03v37.14c0-40.26 33.8300414-73.4 73.9900414-73.95z" opacity=".5"/><path d="m37.0301 213.98c-17.43 0-32.03003 12.05-35.96003 28.26 8.47-7.98 19.70003-12.85 32.02003-12.85h40.96v-15.42h-37.03z"/></g><g opacity=".05"><path d="m74.0501 140.03v-7.87c-31.45 2.06-58.83 20.49-73.9900414 47.16v34.66c0-40.26 33.8300414-73.4 73.9900414-73.95z" opacity=".5"/><path d="m37.03 213.98c-16.88 0-31.10002 11.3-35.55002 26.73 8.32-8.37 19.66002-13.52 32.18002-13.52h40.4v-13.21z"/></g><g opacity=".05"><path d="m74.0501 140.03v-6.51c-31.93 1.79-59.62 20.96-73.9900414 48.49v31.97c0-40.26 33.8300414-73.4 73.9900414-73.95z" opacity=".5"/><path d="m37.0299 213.98c-16.31 0-30.14995 10.56-35.07995 25.21 8.13005-8.75 19.57995-14.2 32.25995-14.2h39.8401v-11.01h-37.03z"/></g><g opacity=".05"><path d="m74.0501 140.03v-5.14c-32.52 1.5-60.58 21.57-73.9900414 50.11v28.98c0-40.26 33.8300414-73.4 73.9900414-73.95z" opacity=".5"/><path d="m37.03 213.98c-15.75 0-29.19001 9.85-34.54001 23.72 7.91001-9.14 19.43001-14.91 32.29001-14.91h39.28v-8.81z"/></g><g opacity=".05"><path d="m74.0501 140.03v-3.74c-33.27 1.19-61.81 22.39-73.9900414 52.18v25.51c0-40.26 33.8300414-73.4 73.9900414-73.95z" opacity=".5"/><path d="m37.0301 213.98c-15.18 0-28.21999 9.15-33.91999 22.23 7.62999-9.53 19.22999-15.62 32.23999-15.62h38.71v-6.61z"/></g></g></g></svg>